<svg xmlns="http://www.w3.org/2000/svg" viewBox="0 0 512 512">
  <defs>
    <linearGradient id="grad" x1="0%" y1="0%" x2="100%" y2="100%">
      <stop offset="0%" style="stop-color:#6366f1;stop-opacity:1" />
      <stop offset="100%" style="stop-color:#a855f7;stop-opacity:1" />
    </linearGradient>
  </defs>
  <rect width="512" height="512" rx="100" fill="url(#grad)"/>
  <path fill="white" d="M256 320c44.2 0 80-35.8 80-80V112c0-44.2-35.8-80-80-80s-80 35.8-80 80v128c0 44.2 35.8 80 80 80z"/>
  <path fill="white" d="M384 240c0 70.7-57.3 128-128 128s-128-57.3-128-128h-32c0 81.3 61.1 148.4 140 158.3V448h-60v32h152v-32h-60v-49.7c78.9-9.9 140-77 140-158.3h-32z"/>
</svg>
